<?xml version="1.0" standalone="no"?>
<!DOCTYPE svg PUBLIC "-//W3C//DTD SVG 20010904//EN"
 "http://www.w3.org/TR/2001/REC-SVG-20010904/DTD/svg10.dtd">
<svg version="1.0" xmlns="http://www.w3.org/2000/svg"
 width="600.000000pt" height="447.000000pt" viewBox="0 0 600.000000 447.000000"
 preserveAspectRatio="xMidYMid meet">

<g transform="translate(0.000000,447.000000) scale(0.100000,-0.100000)"
fill="#000000" stroke="none">
<path d="M2490 4049 c-14 -6 -33 -8 -43 -5 -28 7 -47 -3 -47 -25 0 -13 7 -19
23 -20 14 -1 17 -3 6 -6 -9 -2 -33 5 -53 16 -25 14 -45 19 -67 14 -22 -4 -27
-8 -17 -15 8 -6 1 -7 -21 -3 -19 4 -31 3 -28 -2 11 -18 -9 -36 -30 -25 -20 11
-30 7 -50 -18 -10 -13 -4 -16 45 -18 41 -2 53 0 42 8 -20 13 -6 12 65 -4 38
-9 65 -11 77 -5 9 5 29 8 45 8 26 -2 25 -2 -7 -9 l-35 -6 27 -8 c16 -5 35 -5
44 -2 11 4 25 -2 37 -15 16 -17 28 -20 63 -16 24 2 42 1 39 -3 -5 -8 39 -30
61 -30 8 0 12 -4 9 -10 -4 -6 1 -7 11 -3 13 5 15 3 9 -7 -6 -10 -4 -12 8 -7
10 3 17 2 17 -3 0 -6 6 -10 14 -10 7 0 19 -7 26 -15 7 -9 19 -14 27 -11 8 3
11 1 8 -4 -3 -6 -3 -10 2 -10 4 0 24 -10 43 -22 19 -12 43 -22 53 -23 19 -2
67 -47 67 -64 0 -5 12 -8 27 -6 24 2 25 1 9 -10 -20 -15 -11 -23 21 -20 18 1
20 -1 12 -11 -8 -10 -3 -18 23 -34 18 -11 29 -20 23 -21 -5 0 0 -4 12 -9 16
-6 21 -15 17 -27 -5 -15 -4 -16 5 -3 9 13 11 11 11 -7 0 -32 16 -37 34 -11 12
17 18 20 28 10 9 -9 9 -12 0 -12 -10 0 -10 -5 -1 -21 6 -12 7 -19 1 -15 -5 3
-13 -1 -16 -10 -4 -10 -2 -13 6 -8 8 5 9 1 5 -12 -7 -18 -6 -18 9 1 14 17 16
17 10 2 -3 -11 2 -26 13 -38 11 -12 16 -29 14 -43 -3 -15 1 -25 11 -29 22 -9
30 11 16 38 -14 26 -7 59 12 53 7 -3 12 -34 13 -86 1 -45 -1 -79 -6 -77 -4 3
-5 14 -2 24 6 23 -13 37 -21 15 -3 -8 -2 -12 4 -9 10 6 12 -3 14 -112 0 -44 4
-79 9 -76 4 2 7 14 7 26 0 13 4 17 9 12 13 -15 1 -115 -14 -115 -13 0 -42 -58
-37 -73 1 -5 -1 -6 -5 -4 -5 3 -25 -13 -45 -34 -21 -21 -35 -39 -31 -39 3 0
-4 -9 -17 -20 -12 -11 -27 -17 -33 -13 -6 3 -7 1 -3 -5 8 -13 -28 -35 -39 -24
-5 4 -4 1 0 -7 6 -11 4 -13 -8 -8 -9 3 -17 3 -19 -1 -4 -10 -76 -42 -94 -42
-9 0 -12 -5 -8 -11 4 -8 -1 -9 -16 -4 -14 4 -20 3 -16 -3 7 -11 103 -9 98 3
-2 4 2 11 9 15 13 9 40 -10 32 -23 -2 -4 40 -4 94 -1 54 4 100 11 101 16 2 4
30 8 63 8 32 0 59 4 59 9 0 5 14 9 30 9 17 -1 36 4 42 10 7 7 23 12 38 13 25
1 25 1 -5 14 l-30 13 47 -1 c25 -1 44 -5 41 -10 -2 -4 11 0 31 9 19 10 33 21
30 26 -3 5 0 9 7 7 26 -3 40 1 34 11 -12 20 19 49 52 48 25 -1 41 8 74 41 24
23 44 53 45 68 2 14 6 28 10 32 4 3 4 -4 1 -16 -7 -30 -3 -29 18 3 9 15 12 23
6 20 -6 -4 -11 0 -11 9 0 11 5 15 14 12 16 -7 60 77 52 98 -2 7 -2 16 2 20 12
12 8 126 -4 121 -7 -3 -14 9 -16 29 -3 27 -1 32 9 23 16 -13 16 -6 1 27 -8 19
-14 22 -20 13 -6 -8 -7 0 -3 22 5 28 4 32 -5 20 -10 -12 -11 -11 -7 7 5 22
-22 84 -49 110 -8 8 -14 18 -14 23 0 5 -6 7 -14 4 -8 -3 -12 -13 -9 -23 2 -9
-4 -25 -15 -34 -19 -17 -20 -17 -26 0 -5 11 -1 22 10 30 10 7 14 13 8 13 -5 0
-1 5 9 11 21 12 23 31 1 22 -10 -4 -15 -1 -14 8 4 28 0 38 -20 44 -11 4 -18
11 -15 16 4 5 -2 6 -11 2 -13 -5 -16 -3 -11 10 4 12 2 14 -10 10 -11 -4 -14
-2 -9 5 5 8 2 10 -8 6 -9 -3 -13 -10 -10 -15 3 -5 1 -9 -4 -9 -18 0 -21 13 -6
27 20 20 9 30 -12 12 -16 -13 -16 -12 -5 10 8 15 9 21 2 17 -6 -4 -11 0 -11 8
0 10 -6 13 -17 9 -10 -4 -14 -2 -10 4 4 6 -1 10 -10 9 -10 0 -18 5 -18 13 0 7
-32 31 -72 51 l-72 38 -48 -24 c-40 -21 -51 -23 -70 -13 -18 9 -29 10 -48 1
-32 -15 -35 -15 -35 1 1 24 110 62 110 37 0 -5 -7 -10 -15 -10 -8 0 -15 -4
-15 -10 0 -5 9 -10 19 -10 11 0 23 5 26 10 3 6 15 10 26 10 11 0 17 4 14 10
-3 6 2 8 12 5 10 -3 3 2 -15 10 -18 9 -38 13 -43 9 -6 -3 -18 3 -27 14 -9 10
-28 22 -42 26 l-25 7 23 -14 c23 -13 23 -14 -11 -13 -20 1 -33 3 -31 5 9 10
-21 31 -44 31 -13 0 -30 7 -36 16 -10 13 -19 14 -47 7 -19 -5 -45 -6 -59 -2
-21 6 -19 7 13 6 77 -1 45 11 -48 18 -53 4 -99 5 -102 1 -3 -3 -12 -1 -20 5
-8 7 -30 9 -56 5 -40 -5 -41 -5 -13 7 25 11 8 13 -125 14 -85 1 -165 -3 -179
-8z m53 -26 c-7 -2 -21 -2 -30 0 -10 3 -4 5 12 5 17 0 24 -2 18 -5z m20 -20
c-7 -2 -19 -2 -25 0 -7 3 -2 5 12 5 14 0 19 -2 13 -5z m241 -1 c3 -5 -8 -6
-25 -4 -16 2 -29 6 -29 8 0 8 49 4 54 -4z m-91 -19 c-7 -2 -19 -2 -25 0 -7 3
-2 5 12 5 14 0 19 -2 13 -5z m-280 -10 c-7 -2 -19 -2 -25 0 -7 3 -2 5 12 5 14
0 19 -2 13 -5z m117 -3 c13 -9 13 -11 0 -19 -17 -12 -30 -5 -30 15 0 16 9 18
30 4z m170 -51 c0 -9 -62 -18 -80 -10 -9 3 -2 8 20 11 49 8 60 8 60 -1z m-73
-34 c0 -8 -4 -12 -9 -9 -5 3 -6 10 -3 15 9 13 12 11 12 -6z m68 -15 c3 -5 -1
-10 -9 -10 -9 0 -16 5 -16 10 0 6 4 10 9 10 6 0 13 -4 16 -10z m725 -8 c0 -5
-17 -14 -39 -20 -47 -15 -51 -15 -51 -1 0 5 4 7 10 4 5 -3 22 1 37 9 32 18 43
19 43 8z m40 -22 c-8 -5 -19 -10 -25 -10 -5 0 -3 5 5 10 8 5 20 10 25 10 6 0
3 -5 -5 -10z m-635 -20 c-3 -5 -16 -10 -28 -10 -18 0 -19 2 -7 10 20 13 43 13
35 0z m115 -27 c0 -7 -9 -13 -19 -13 -20 0 -31 17 -24 37 6 16 43 -6 43 -24z
m80 21 c0 -17 -22 -14 -28 4 -2 7 3 12 12 12 9 0 16 -7 16 -16z m504 -45 c-9
-16 -20 -10 -21 12 -2 17 1 18 12 9 8 -7 12 -16 9 -21z m-674 6 c7 -9 8 -15 2
-15 -5 0 -12 7 -16 15 -3 8 -4 15 -2 15 2 0 9 -7 16 -15z m720 -43 c0 -10 5
-23 12 -30 21 -21 2 -22 -24 -1 -15 12 -24 28 -21 35 8 20 33 17 33 -4z m-576
-17 c3 -9 0 -15 -9 -15 -8 0 -15 7 -15 15 0 8 4 15 9 15 5 0 11 -7 15 -15z
m559 -42 c-7 -2 -19 -2 -25 0 -7 3 -2 5 12 5 14 0 19 -2 13 -5z m-513 -7 c0
-3 -4 -8 -10 -11 -5 -3 -10 -1 -10 4 0 6 5 11 10 11 6 0 10 -2 10 -4z m80 0
c0 -3 -4 -8 -10 -11 -5 -3 -10 -1 -10 4 0 6 5 11 10 11 6 0 10 -2 10 -4z m553
-12 c-4 -10 0 -20 10 -26 10 -5 17 -14 17 -20 0 -6 -9 -3 -20 7 -21 19 -27 55
-10 55 5 0 7 -7 3 -16z m-583 -23 c0 -17 -12 -41 -20 -41 -11 0 -21 30 -14 41
7 12 34 12 34 0z m88 -14 c4 -20 -25 -34 -40 -19 -15 15 -1 44 19 40 10 -2 19
-11 21 -21z m-48 -52 c-7 -8 -16 -15 -21 -15 -5 0 -9 7 -9 15 0 9 9 15 21 15
18 0 19 -2 9 -15z m649 -21 c4 3 12 -4 19 -15 11 -16 9 -19 -10 -17 -17 1 -23
9 -24 27 -1 15 1 20 3 13 3 -6 8 -10 12 -8z m-556 -184 c3 -11 1 -18 -4 -14
-5 3 -9 12 -9 20 0 20 7 17 13 -6z m102 -29 c-3 -11 -1 -22 5 -26 5 -3 10 -20
10 -38 0 -39 -13 -26 -28 29 -15 53 -15 54 4 54 11 0 13 -6 9 -19z m532 -103
c-3 -8 -6 -5 -6 6 -1 11 2 17 5 13 3 -3 4 -12 1 -19z m-563 -23 c3 -8 1 -15
-4 -15 -6 0 -10 7 -10 15 0 8 2 15 4 15 2 0 6 -7 10 -15z m566 -40 c0 -5 -5
-3 -10 5 -5 8 -10 20 -10 25 0 6 5 3 10 -5 5 -8 10 -19 10 -25z m-33 -12 c-3
-10 -5 -4 -5 12 0 17 2 24 5 18 2 -7 2 -21 0 -30z m-79 -57 c-7 -8 -16 -12
-21 -9 -11 7 2 23 19 23 12 0 12 -2 2 -14z m26 -31 c-14 -24 -23 -49 -19 -55
3 -6 0 -7 -9 -4 -16 6 -22 24 -8 24 4 0 13 15 21 33 12 26 28 46 38 47 1 0
-10 -20 -23 -45z m-434 -55 c0 -11 -2 -20 -4 -20 -2 0 -6 9 -9 20 -3 11 -1 20
4 20 5 0 9 -9 9 -20z m372 -32 c-15 -15 -26 -4 -18 18 5 13 9 15 18 6 9 -9 9
-15 0 -24z m-408 -30 c10 -51 7 -78 -9 -78 -11 0 -15 11 -15 39 0 22 -5 41
-11 43 -5 2 -7 11 -4 20 10 25 32 11 39 -24z m-74 -42 c0 -8 7 -21 15 -30 14
-13 12 -16 -19 -21 -45 -9 -69 -4 -72 16 -1 13 4 16 27 12 24 -3 29 -1 29 16
0 12 5 21 10 21 6 0 10 -6 10 -14z m185 -55 c3 -5 1 -13 -5 -16 -15 -9 -43 3
-35 15 8 13 32 13 40 1z m-98 -7 c-3 -3 -12 -4 -19 -1 -8 3 -5 6 6 6 11 1 17
-2 13 -5z m180 0 c-3 -3 -12 -4 -19 -1 -8 3 -5 6 6 6 11 1 17 -2 13 -5z m-347
-24 c0 -5 -9 -10 -20 -10 -11 0 -20 5 -20 10 0 6 9 10 20 10 11 0 20 -4 20
-10z m194 -13 c-4 -11 -15 -14 -42 -11 -51 7 -53 14 -4 14 25 0 42 5 42 12 0
6 2 9 5 6 3 -3 3 -12 -1 -21z m-246 -30 c2 -11 -3 -17 -17 -17 -25 0 -38 19
-20 31 19 12 33 6 37 -14z m309 17 c-3 -3 -12 -4 -19 -1 -8 3 -5 6 6 6 11 1
17 -2 13 -5z m-227 -14 c0 -5 -8 -10 -17 -10 -15 0 -16 2 -3 10 19 12 20 12
20 0z"/>
<path d="M3150 3490 c0 -5 5 -10 10 -10 6 0 10 5 10 10 0 6 -4 10 -10 10 -5 0
-10 -4 -10 -10z"/>
<path d="M3255 3411 c-3 -5 -1 -12 5 -16 5 -3 10 1 10 9 0 18 -6 21 -15 7z"/>
<path d="M2606 3199 c-250 -26 -427 -159 -493 -369 -26 -82 -23 -269 5 -379
115 -440 651 -974 1241 -1236 164 -73 303 -114 436 -130 53 -6 58 -5 46 9 -7
9 -17 16 -21 16 -14 0 -194 102 -270 153 -272 182 -518 468 -656 762 -48 103
-105 277 -125 380 -8 39 -14 126 -14 195 0 202 39 295 199 466 56 61 73 84 63
92 -22 18 -81 32 -177 42 -106 11 -122 11 -234 -1z"/>
<path d="M3560 962 c0 -7 -3 -11 -7 -9 -5 3 -8 -89 -8 -204 0 -181 2 -209 15
-207 13 3 15 34 16 205 0 111 -3 208 -7 215 -7 11 -9 11 -9 0z"/>
<path d="M450 929 c0 -5 5 -7 10 -4 6 3 10 8 10 11 0 2 -4 4 -10 4 -5 0 -10
-5 -10 -11z"/>
<path d="M517 934 c-9 -10 2 -24 19 -24 8 0 14 7 14 15 0 15 -21 21 -33 9z"/>
<path d="M1937 933 c-2 -5 -5 -71 -6 -148 -1 -77 -4 -164 -7 -192 -4 -29 -2
-54 2 -54 5 -1 49 -3 97 -4 66 -2 92 1 103 12 7 8 18 12 23 9 5 -3 12 1 15 10
5 12 2 15 -9 10 -9 -3 -13 -2 -10 4 3 6 10 10 16 10 12 0 49 37 42 43 -2 3 3
19 11 36 9 16 15 52 15 78 l-1 48 -8 -40 c-4 -22 -6 -43 -3 -47 2 -5 -1 -8 -7
-8 -13 0 -10 81 4 113 6 13 5 16 -7 11 -12 -4 -14 -1 -10 15 3 12 1 21 -6 21
-6 0 -11 7 -11 15 0 9 -12 20 -26 25 -32 13 -43 13 -24 0 12 -8 12 -10 1 -10
-9 0 -6 -7 9 -20 13 -11 27 -20 33 -20 5 0 7 -7 3 -15 -3 -8 -2 -15 3 -15 5 0
9 -21 9 -47 1 -26 4 -60 8 -76 4 -20 3 -27 -5 -23 -7 5 -11 -3 -11 -23 0 -20
-9 -37 -29 -54 -17 -14 -28 -27 -25 -30 3 -3 -23 -6 -58 -7 -93 -3 -102 -2
-106 10 -2 5 -7 8 -12 5 -4 -3 -6 12 -4 33 2 20 4 94 5 165 1 70 6 127 10 127
5 0 9 9 9 20 0 19 -24 28 -33 13z"/>
<path d="M2003 927 c0 -9 14 -17 36 -20 20 -3 44 -8 53 -12 13 -5 17 -2 15 14
-1 16 -8 21 -32 21 -16 0 -39 3 -51 6 -14 4 -21 1 -21 -9z"/>
<path d="M3710 933 c-3 -15 -3 -25 -1 -90 l1 -48 15 29 c9 16 15 37 14 45 -5
53 27 48 37 -6 4 -19 13 -37 20 -40 8 -3 14 -14 14 -25 0 -11 10 -49 22 -85
20 -57 24 -62 35 -47 17 23 16 39 -1 57 -21 20 -56 103 -65 150 -5 33 -11 41
-25 39 -11 -2 -15 1 -11 7 4 8 -2 8 -19 1 -20 -7 -26 -6 -29 8 -3 9 -6 11 -7
5z"/>
<path d="M4099 931 c11 -7 11 -9 0 -14 -12 -5 -11 -7 1 -16 10 -7 13 -23 11
-51 -2 -36 0 -41 16 -38 14 3 18 14 20 58 1 33 -1 49 -6 41 -6 -9 -11 -10 -15
-2 -4 6 -4 16 -1 21 3 6 -4 10 -17 10 -17 0 -19 -3 -9 -9z"/>
<path d="M468 911 c-16 -15 -18 -39 -18 -189 0 -143 2 -172 14 -172 18 0 26
24 25 75 0 22 2 51 5 64 7 31 -5 51 -16 25 -9 -22 -4 72 7 124 5 22 4 32 -4
32 -7 0 -9 5 -6 10 3 6 0 10 -7 11 -7 0 -3 4 10 9 12 5 22 14 22 20 0 15 -12
11 -32 -9z"/>
<path d="M572 919 c2 -8 19 -19 38 -25 34 -10 35 -13 38 -63 2 -40 -1 -58 -14
-72 -12 -13 -14 -23 -7 -30 14 -14 45 0 38 19 -3 8 0 21 6 28 7 8 9 27 5 46
-4 18 -7 41 -7 51 0 20 -31 42 -72 53 -21 5 -27 3 -25 -7z"/>
<path d="M5216 915 c-4 -11 1 -15 19 -15 16 0 25 6 25 15 0 8 -9 15 -19 15
-10 0 -21 -7 -25 -15z"/>
<path d="M4066 895 c5 -19 3 -25 -7 -23 -9 2 -13 -4 -11 -16 2 -12 -1 -16 -9
-10 -9 5 -10 2 -6 -10 4 -10 7 -20 7 -22 0 -2 5 -4 11 -4 5 0 7 5 3 11 -3 6 3
24 15 39 11 16 18 36 15 44 -10 26 -25 18 -18 -9z"/>
<path d="M4855 904 c-6 -2 -8 -25 -6 -50 l3 -46 -31 7 c-25 5 -31 3 -31 -10 0
-9 4 -13 10 -10 5 3 18 1 29 -5 18 -9 20 -20 19 -118 -1 -83 1 -106 11 -104 8
2 11 -3 8 -11 -11 -29 35 -47 77 -31 33 13 16 30 -25 26 -27 -3 -39 -1 -35 6
3 6 2 12 -3 14 -5 1 -13 16 -17 32 -5 22 -4 27 6 21 8 -5 11 -4 7 2 -9 14 -13
151 -5 158 3 4 24 7 47 8 27 1 41 6 41 15 0 10 -10 13 -35 10 -19 -2 -35 0
-35 5 0 4 -4 6 -8 3 -5 -3 -9 14 -11 37 -2 46 -2 46 -16 41z"/>
<path d="M3020 887 c0 -7 5 -18 12 -25 7 -7 8 -12 2 -12 -6 0 -11 -7 -11 -15
0 -17 6 -18 27 -5 9 6 10 10 3 10 -8 0 -9 9 -3 30 7 26 6 30 -11 30 -10 0 -19
-6 -19 -13z"/>
<path d="M1193 820 c-13 -5 -23 -12 -23 -15 0 -4 5 -3 10 0 6 3 10 3 10 -2 0
-4 14 -9 31 -10 24 -2 30 1 27 15 -4 20 -24 24 -55 12z"/>
<path d="M1380 822 c-32 -15 -20 -29 18 -22 28 5 42 3 52 -8 10 -11 15 -12 18
-4 2 7 7 12 12 12 5 0 6 -32 3 -70 -5 -63 -4 -70 11 -64 10 4 15 13 12 20 -3
8 -2 14 2 14 6 0 8 40 4 78 -4 33 -92 62 -132 44z"/>
<path d="M2395 804 c-14 -15 -25 -24 -25 -20 0 4 -9 2 -20 -4 -11 -6 -18 -14
-16 -19 3 -4 -2 -20 -10 -35 -16 -32 -19 -92 -4 -101 5 -3 6 -13 3 -22 -5 -12
-3 -14 7 -8 10 6 12 4 7 -7 -6 -17 28 -54 53 -57 8 -1 35 -4 58 -7 27 -4 48
-2 55 5 6 6 19 11 29 11 10 0 18 7 18 15 0 12 -4 13 -17 7 -26 -14 -133 -21
-126 -9 3 6 1 7 -5 3 -7 -4 -12 -2 -12 4 0 6 -4 8 -10 5 -5 -3 -10 0 -10 8 0
8 -6 20 -14 27 -8 6 -14 17 -12 23 1 7 1 9 -1 4 -9 -15 -23 5 -22 31 1 17 3
20 6 10 4 -16 6 -17 20 -2 12 11 13 21 6 37 -7 15 -6 31 3 52 7 17 13 26 14
22 0 -5 10 -1 22 7 12 9 30 16 39 16 8 0 16 7 16 15 0 23 -25 18 -52 -11z"/>
<path d="M2761 821 c-11 -7 -11 -9 0 -14 8 -3 2 -6 -13 -6 -28 -1 -37 -14 -18
-26 6 -3 10 -2 10 3 0 15 69 25 84 13 7 -6 16 -7 20 -3 4 4 7 3 6 -3 -1 -5 -2
-17 -1 -25 1 -13 2 -13 11 0 6 10 9 -8 9 -55 -1 -129 1 -153 14 -158 9 -3 12
20 12 98 0 57 -3 101 -7 99 -3 -2 -4 5 -1 16 3 12 0 20 -8 20 -7 0 -10 3 -6 6
3 4 0 13 -8 20 -16 16 -29 19 -20 4 3 -6 -1 -7 -9 -4 -9 3 -13 10 -10 15 7 11
-47 11 -65 0z"/>
<path d="M3287 823 c-16 -3 -31 -11 -33 -18 -3 -8 -12 -11 -20 -8 -9 3 -14 -1
-13 -13 0 -11 3 -14 5 -7 3 7 11 10 19 7 7 -3 16 -1 20 5 3 6 26 11 50 11 34
0 48 -5 61 -22 9 -13 14 -16 11 -7 -3 9 0 22 6 28 9 9 8 10 -7 5 -13 -5 -17
-4 -13 3 12 20 -21 26 -86 16z"/>
<path d="M4326 821 c-4 -5 -14 -7 -23 -4 -11 4 -14 3 -9 -5 4 -7 2 -12 -4 -12
-6 0 -9 -4 -5 -10 4 -6 15 -6 31 0 33 13 81 13 89 0 5 -8 11 -7 21 1 12 10 17
9 27 0 9 -10 8 -11 -5 -6 -11 4 -18 2 -18 -4 0 -6 4 -11 10 -11 14 0 4 -81
-11 -90 -8 -5 -5 -10 10 -15 13 -4 25 -5 27 -2 9 9 10 78 2 83 -5 3 -6 14 -3
24 4 13 -1 24 -17 34 -30 19 -114 31 -122 17z"/>
<path d="M4682 819 c-25 -9 -25 -37 -1 -30 8 1 24 4 37 6 28 3 36 10 27 24 -7
13 -32 13 -63 0z"/>
<path d="M5496 818 c5 -8 2 -9 -9 -5 -10 3 -17 2 -17 -3 0 -6 -7 -10 -15 -10
-8 0 -15 -8 -15 -17 0 -11 3 -14 8 -7 9 13 72 36 72 26 0 -4 12 -15 27 -24
l28 -17 -4 -104 c-2 -68 1 -107 8 -111 6 -4 11 0 11 8 0 9 5 16 10 16 15 0 12
38 -7 77 -13 27 -13 37 -4 43 10 6 11 19 1 63 -10 49 -15 57 -42 66 -41 14
-61 14 -52 -1z m69 -17 c3 -5 1 -12 -5 -16 -5 -3 -10 1 -10 9 0 18 6 21 15 7z"/>
<path d="M759 811 c7 -5 11 -13 8 -18 -3 -5 5 -28 18 -51 13 -24 20 -40 15
-37 -6 3 -7 -1 -4 -9 3 -9 11 -13 16 -10 6 4 8 -2 3 -15 -3 -12 -2 -21 3 -21
6 0 13 -18 17 -41 4 -22 13 -43 21 -46 19 -7 18 -77 -1 -106 -24 -38 -2 -50
23 -13 18 27 21 38 13 59 -8 19 -7 27 5 31 8 3 14 13 14 23 0 15 2 16 10 3 8
-12 10 -11 11 8 1 12 2 28 3 35 1 6 4 14 7 17 4 3 9 16 13 30 6 19 5 21 -3 10
-10 -13 -11 -13 -11 0 1 16 30 60 30 44 1 -5 9 14 19 41 10 28 16 56 13 63 -7
19 -27 8 -25 -14 1 -10 -5 -31 -13 -46 -30 -60 -41 -85 -54 -125 -9 -30 -19
-43 -32 -43 -10 0 -18 7 -18 18 0 9 -7 30 -15 46 -8 15 -15 44 -15 63 0 22 -4
32 -11 28 -6 -4 -9 -1 -8 6 2 8 -1 30 -6 49 l-9 35 -7 -35 -6 -35 -2 33 c-1
23 -6 32 -18 32 -14 0 -15 -2 -4 -9z"/>
<path d="M1100 808 c0 -14 19 -47 21 -38 8 26 4 50 -7 50 -8 0 -14 -6 -14 -12z"/>
<path d="M1340 820 c-8 -26 -7 -41 2 -32 6 6 8 16 5 24 -3 7 -6 11 -7 8z"/>
<path d="M1800 808 c0 -5 -5 -6 -11 -2 -7 4 -9 -2 -7 -17 1 -13 8 -22 13 -20
6 1 9 7 8 12 -2 5 1 9 6 9 5 0 11 6 14 13 3 8 -1 14 -9 14 -8 0 -14 -4 -14 -9z"/>
<path d="M2498 782 c46 -43 47 -44 32 -73 -9 -16 -22 -19 -72 -19 -79 0 -72
-6 18 -14 69 -7 71 -6 83 20 10 24 10 26 -6 20 -14 -6 -16 -5 -5 5 14 15 16
43 2 34 -6 -3 -7 1 -4 9 4 11 0 16 -10 16 -9 0 -16 6 -16 14 0 15 -21 26 -47
26 -10 0 -1 -14 25 -38z"/>
<path d="M2663 724 c-2 -103 10 -123 25 -41 13 71 14 109 2 102 -5 -3 -7 0 -4
8 3 8 -1 17 -8 20 -11 4 -14 -15 -15 -89z"/>
<path d="M2972 808 c3 -7 14 -14 26 -16 24 -4 24 -6 27 -140 1 -40 5 -75 8
-78 13 -13 23 44 22 124 -1 45 3 86 8 89 5 3 22 6 36 7 14 1 28 6 31 11 7 14
-75 18 -100 5 -13 -7 -20 -7 -20 0 0 5 -9 10 -21 10 -12 0 -19 -5 -17 -12z"/>
<path d="M4591 675 c0 -92 4 -143 10 -134 8 12 10 12 19 -1 7 -11 10 -4 10 28
0 23 -4 42 -10 42 -13 0 -13 84 -1 108 5 9 12 25 15 35 3 10 10 15 16 12 6 -4
7 1 3 11 -5 13 -8 14 -11 5 -3 -9 -12 -4 -29 15 l-24 28 2 -149z"/>
<path d="M5225 683 c0 -103 3 -137 13 -141 10 -3 13 26 11 137 -1 99 -4 141
-12 141 -9 0 -12 -40 -12 -137z"/>
<path d="M1615 795 c11 -9 19 -21 17 -26 -1 -6 2 -8 7 -5 5 3 12 -1 15 -10 4
-10 2 -13 -7 -9 -6 4 -4 0 5 -8 10 -8 15 -16 12 -19 -3 -4 -1 -9 5 -12 5 -4
15 3 21 14 10 19 7 24 -13 21 -5 -1 -6 3 -2 9 7 11 -14 44 -30 47 -5 1 -19 4
-30 8 l-20 7 20 -17z"/>
<path d="M5371 676 c-1 -129 6 -177 20 -140 11 29 11 76 -1 69 -5 -3 -10 1
-10 10 0 9 5 13 11 10 7 -5 8 14 3 64 -6 68 -6 71 15 71 11 0 21 5 21 10 0 6
-6 9 -12 8 -7 -2 -12 3 -10 10 1 6 -7 12 -17 12 -18 0 -19 -9 -20 -124z"/>
<path d="M1131 769 c-24 -26 -35 -86 -32 -176 1 -30 5 -43 15 -43 11 0 15 21
18 94 2 52 0 92 -4 89 -20 -11 -5 16 15 30 12 8 19 18 16 22 -4 3 -16 -4 -28
-16z"/>
<path d="M3703 665 c2 -115 4 -125 21 -125 17 0 18 6 10 83 -4 45 -7 101 -6
125 2 31 -2 42 -12 42 -12 0 -14 -22 -13 -125z"/>
<path d="M4013 776 c-6 -8 -10 -16 -8 -18 3 -2 -16 -44 -40 -93 -25 -49 -44
-94 -41 -100 2 -7 -2 -12 -10 -12 -17 0 -17 3 -4 27 7 13 6 21 -5 30 -8 7 -15
24 -15 38 0 24 -1 24 -13 8 -11 -15 -10 -26 2 -67 13 -42 18 -48 37 -45 13 3
25 -1 28 -7 3 -7 3 0 0 14 -4 17 0 32 11 43 11 10 14 24 10 38 -6 19 -5 21 6
11 10 -11 17 -3 36 42 13 31 21 61 17 67 -4 7 -3 8 4 4 8 -5 12 0 12 13 0 24
-10 26 -27 7z m-116 -198 c-3 -8 -6 -5 -6 6 -1 11 2 17 5 13 3 -3 4 -12 1 -19z"/>
<path d="M4110 660 c0 -85 4 -130 11 -130 5 0 7 5 4 10 -3 6 -2 10 4 10 5 0
11 -4 13 -10 2 -5 3 28 4 73 0 45 -1 74 -3 64 -7 -27 -23 -9 -23 26 0 24 3 28
10 17 8 -12 10 -9 10 12 0 32 -9 58 -21 58 -5 0 -9 -58 -9 -130z"/>
<path d="M4260 780 c0 -5 5 -10 11 -10 5 0 7 5 4 10 -3 6 -8 10 -11 10 -2 0
-4 -4 -4 -10z"/>
<path d="M1753 753 c-4 -10 -10 -20 -13 -23 -4 -3 -12 -18 -19 -35 -7 -20 -10
-22 -7 -7 4 23 4 23 -15 6 -12 -11 -17 -24 -13 -36 3 -12 1 -18 -7 -16 -7 2
-14 -1 -14 -7 -3 -22 -18 -45 -26 -39 -5 3 -6 -3 -2 -12 5 -13 3 -15 -7 -9 -8
5 -11 4 -7 -2 3 -5 -3 -17 -14 -27 -12 -10 -18 -20 -15 -23 3 -4 13 2 20 13 8
10 20 19 28 19 7 0 12 8 10 18 -2 10 3 16 10 15 8 -2 12 5 10 17 -2 11 -1 17
4 13 4 -5 14 1 21 12 8 11 18 18 22 16 4 -3 15 15 25 39 10 24 25 46 32 49 15
6 8 36 -7 36 -5 0 -13 -8 -16 -17z"/>
<path d="M3400 751 c-16 -31 -12 -51 10 -51 17 0 18 3 10 26 -7 16 -7 23 0 19
6 -3 10 1 10 9 0 22 -17 20 -30 -3z"/>
<path d="M575 716 c-18 -13 -18 -14 4 -21 25 -8 47 7 37 24 -9 14 -18 14 -41
-3z"/>
<path d="M510 715 c0 -2 9 -9 20 -15 16 -9 20 -8 20 5 0 8 -9 15 -20 15 -11 0
-20 -2 -20 -5z"/>
<path d="M4623 670 c0 -25 2 -35 4 -22 2 12 2 32 0 45 -2 12 -4 2 -4 -23z"/>
<path d="M1370 680 c0 -6 -4 -9 -9 -6 -5 3 -20 -3 -32 -13 -34 -27 -34 -82 -2
-117 21 -23 30 -26 70 -21 25 2 52 12 61 21 11 10 12 16 4 16 -7 0 -12 -6 -12
-12 0 -10 -2 -10 -9 0 -7 11 -11 11 -24 -2 -11 -12 -17 -13 -20 -3 -3 9 -9 9
-27 -1 -12 -8 -20 -9 -16 -4 3 5 -4 18 -14 30 -11 12 -20 27 -20 35 0 21 39
57 61 57 12 0 19 5 17 12 -6 16 -28 23 -28 8z"/>
<path d="M3253 674 c-21 -9 -33 -21 -33 -33 0 -11 -4 -22 -9 -25 -14 -9 0 -46
18 -47 11 0 12 -2 3 -6 -10 -4 -10 -8 -2 -18 6 -8 19 -11 27 -8 10 4 14 2 10
-5 -8 -12 72 -10 92 2 19 12 3 24 -25 18 -19 -3 -22 -7 -12 -13 11 -7 10 -9
-1 -9 -26 0 -91 52 -91 72 0 21 22 48 39 48 6 0 11 7 11 16 0 11 6 14 20 9 11
-4 20 -2 20 4 0 15 -28 13 -67 -5z"/>
<path d="M3380 680 c0 -5 7 -10 15 -10 8 0 15 5 15 10 0 6 -7 10 -15 10 -8 0
-15 -4 -15 -10z"/>
<path d="M4335 680 c8 -13 35 -13 55 0 11 7 5 10 -23 10 -23 0 -36 -4 -32 -10z"/>
<path d="M4288 669 c-10 -5 -22 -18 -27 -27 -7 -14 -5 -17 14 -17 19 0 21 3
12 15 -6 8 -8 12 -3 8 12 -10 48 11 41 23 -8 11 -15 11 -37 -2z"/>
<path d="M3395 650 c-3 -5 -3 -14 0 -20 3 -5 -1 -23 -10 -40 -9 -17 -12 -29
-8 -28 4 1 18 -3 31 -10 21 -12 22 -11 22 18 0 17 -5 30 -12 30 -9 0 -9 3 0
12 17 17 15 48 -2 48 -8 0 -18 -4 -21 -10z m25 -75 c0 -8 -2 -15 -4 -15 -2 0
-6 7 -10 15 -3 8 -1 15 4 15 6 0 10 -7 10 -15z"/>
<path d="M1486 634 c-3 -9 -6 -17 -6 -18 0 -1 9 -2 20 -3 11 -1 20 0 20 2 0
11 -13 35 -20 35 -4 0 -11 -7 -14 -16z"/>
<path d="M4446 615 c1 -24 -2 -35 -12 -35 -8 0 -14 -5 -14 -11 0 -5 -4 -8 -8
-5 -5 3 -18 -4 -30 -14 -12 -11 -24 -20 -28 -20 -18 0 -64 44 -64 62 0 14 -5
18 -16 14 -9 -3 -18 -6 -20 -6 -2 0 -4 -6 -4 -13 0 -17 42 -52 59 -49 7 2 10
-1 6 -7 -4 -7 3 -11 18 -11 29 0 97 27 97 38 0 4 9 8 20 8 25 0 25 -5 3 -23
-10 -8 -12 -12 -5 -8 6 3 12 1 12 -4 0 -6 5 -11 10 -11 6 0 10 18 10 41 0 24
-4 38 -10 34 -14 -9 -12 9 2 23 10 10 10 15 -2 22 -23 15 -25 12 -24 -25z"/>
<path d="M1746 617 c10 -36 47 -92 52 -79 2 7 8 10 13 6 5 -3 9 2 9 10 0 8 -5
18 -12 22 -7 4 -8 3 -4 -4 4 -7 5 -12 2 -12 -8 0 -37 58 -34 66 2 4 -5 8 -15
10 -14 2 -16 -2 -11 -19z"/>
<path d="M2675 608 c-13 -43 -11 -68 4 -68 13 0 16 8 13 40 -4 41 -10 50 -17
28z"/>
<path d="M1490 560 c0 -11 7 -20 15 -20 8 0 15 9 15 20 0 11 -7 20 -15 20 -8
0 -15 -9 -15 -20z"/>
<path d="M5050 565 c0 -14 12 -19 33 -16 4 0 7 -4 7 -10 0 -7 -9 -9 -21 -6
-16 4 -19 3 -11 -5 17 -17 40 -2 40 26 0 21 -5 26 -24 26 -15 0 -24 -6 -24
-15z"/>
<path d="M3046 562 c-3 -6 2 -18 11 -28 10 -10 19 -12 21 -6 2 7 11 8 28 2 19
-8 24 -6 24 6 0 9 -7 14 -17 12 -10 -1 -24 1 -30 5 -7 5 -13 5 -13 0 0 -4 -4
-2 -9 6 -5 8 -11 9 -15 3z"/>
</g>
</svg>
