<?xml version="1.0" standalone="no"?>
<!DOCTYPE svg PUBLIC "-//W3C//DTD SVG 20010904//EN"
 "http://www.w3.org/TR/2001/REC-SVG-20010904/DTD/svg10.dtd">
<svg version="1.0" xmlns="http://www.w3.org/2000/svg"
 width="659.000000pt" height="164.000000pt" viewBox="0 0 659.000000 164.000000"
 preserveAspectRatio="xMidYMid meet">

<g transform="translate(0.000000,164.000000) scale(0.100000,-0.100000)"
fill="#000000" stroke="none">
<path d="M5463 1488 c-27 -13 -40 -68 -27 -107 5 -15 21 -30 38 -36 25 -8 31
-6 52 18 31 37 31 81 -1 112 -27 28 -30 28 -62 13z"/>
<path d="M765 1455 c-33 -27 -64 -32 -83 -13 -8 8 -12 8 -12 1 0 -6 6 -16 14
-22 23 -19 108 -131 99 -131 -4 0 -38 30 -76 66 -37 36 -67 61 -67 56 0 -5 7
-15 15 -22 8 -7 15 -19 15 -26 0 -8 7 -14 16 -14 9 0 18 -9 21 -20 3 -11 9
-17 14 -15 12 8 40 -40 34 -58 -4 -8 -2 -18 3 -21 12 -7 47 47 57 86 6 24 5
26 -26 25 -45 -3 -48 21 -10 58 17 17 31 34 31 40 0 5 -17 -8 -38 -28 -21 -21
-41 -34 -45 -31 -15 15 -6 32 28 50 19 10 35 22 35 27 0 5 9 5 20 2 11 -4 20
-2 20 4 0 19 -34 11 -65 -14z"/>
<path d="M627 1463 c-13 -12 -7 -25 6 -14 8 6 17 8 20 4 4 -3 7 -1 7 5 0 13
-22 16 -33 5z"/>
<path d="M3057 1443 c-4 -3 -7 -156 -7 -340 l0 -333 50 0 50 0 0 340 0 340
-43 0 c-24 0 -47 -3 -50 -7z"/>
<path d="M338 1403 c0 -10 0 -25 1 -33 8 -67 7 -119 -3 -113 -6 3 -7 2 -3 -2
4 -5 15 -10 23 -11 11 -2 13 2 8 14 -5 9 -8 35 -9 57 0 22 -4 46 -8 53 -5 6
-5 17 -2 22 9 15 34 -7 46 -38 5 -14 12 -22 16 -19 8 8 -44 87 -57 87 -6 0
-11 -8 -12 -17z"/>
<path d="M1114 1406 c-3 -7 -4 -33 -2 -57 l3 -44 70 -5 70 -5 3 -262 2 -263
50 0 50 0 2 263 3 262 73 3 73 3 -3 57 -3 57 -193 3 c-158 2 -193 0 -198 -12z"/>
<path d="M3447 1414 c-4 -4 -7 -31 -7 -61 l0 -53 81 0 80 0 -3 -196 c-3 -192
-3 -196 -27 -215 -34 -28 -65 -24 -98 14 l-30 34 -26 -47 -27 -48 22 -27 c25
-32 91 -64 132 -65 52 0 111 43 135 99 20 48 21 63 19 308 l-3 258 -121 3
c-66 1 -123 -1 -127 -4z"/>
<path d="M5158 1313 c-3 -55 -4 -58 -31 -61 -27 -3 -28 -5 -25 -55 3 -48 5
-52 31 -55 l27 -3 0 -137 c0 -114 3 -143 18 -172 33 -62 125 -90 171 -52 19
15 20 21 9 55 -10 34 -14 37 -38 32 -19 -4 -31 0 -45 15 -17 19 -20 38 -20
138 l0 117 45 5 45 5 3 52 3 52 -48 3 -48 3 -3 58 -3 57 -44 0 -44 0 -3 -57z"/>
<path d="M150 1346 c0 -17 44 -75 52 -70 7 4 4 10 -6 16 -9 5 -16 18 -16 28 0
16 7 20 37 20 28 0 46 -8 72 -32 19 -18 29 -24 21 -13 -33 45 -52 55 -107 55
-29 0 -53 -2 -53 -4z"/>
<path d="M472 1319 c-26 -24 -30 -39 -4 -17 9 9 24 17 32 20 9 3 10 7 4 11 -6
3 -21 -3 -32 -14z"/>
<path d="M538 1320 c25 -24 32 -25 32 -6 0 8 -7 17 -16 20 -31 12 -38 6 -16
-14z"/>
<path d="M701 1284 c0 -11 3 -14 6 -6 3 7 2 16 -1 19 -3 4 -6 -2 -5 -13z"/>
<path d="M420 1261 c-22 -42 -5 -65 30 -40 12 8 10 9 -7 4 -25 -7 -29 5 -13
36 6 10 8 19 6 19 -3 0 -10 -9 -16 -19z"/>
<path d="M535 1270 c-3 -5 -1 -10 4 -10 6 0 11 5 11 10 0 6 -2 10 -4 10 -3 0
-8 -4 -11 -10z"/>
<path d="M1709 1240 c-44 -29 -44 -29 -49 -7 -5 19 -13 22 -50 22 l-45 0 -3
-242 -2 -243 50 0 50 0 0 137 c0 118 3 143 21 180 15 30 29 45 47 49 15 3 33
7 40 10 8 2 12 24 12 64 0 71 -7 74 -71 30z"/>
<path d="M1899 1254 c-25 -8 -54 -22 -63 -32 -15 -17 -15 -22 0 -60 l17 -41
38 19 c21 11 51 20 67 20 39 0 84 -45 80 -79 -3 -25 -7 -26 -80 -33 -115 -10
-153 -47 -151 -149 2 -118 118 -184 201 -114 36 30 42 31 42 5 0 -17 7 -20 46
-20 l46 0 -4 188 c-3 176 -4 189 -27 229 -17 29 -38 49 -68 63 -49 23 -79 24
-144 4z m139 -316 c3 -29 -2 -43 -22 -63 -47 -47 -116 -26 -116 35 0 45 35 72
90 68 44 -3 45 -4 48 -40z"/>
<path d="M2735 1256 c-99 -44 -149 -166 -125 -305 22 -127 101 -197 212 -188
59 5 103 28 113 60 4 10 -3 33 -15 53 -20 32 -24 34 -39 20 -35 -31 -77 -39
-115 -21 -35 17 -73 76 -61 95 4 6 61 10 136 10 l129 0 0 63 c-1 97 -49 181
-123 212 -44 18 -72 18 -112 1z m123 -130 c40 -59 30 -71 -66 -74 -90 -3 -104
5 -81 50 23 46 41 58 83 58 35 0 44 -5 64 -34z"/>
<path d="M4419 1240 c-44 -29 -44 -29 -49 -7 -5 19 -13 22 -50 22 l-45 0 -3
-242 -2 -243 50 0 50 0 0 143 c0 172 15 220 71 231 42 8 81 -18 90 -60 4 -16
7 -93 8 -171 l1 -143 51 0 52 0 -5 185 c-5 163 -8 190 -28 230 -15 32 -34 52
-61 65 -52 27 -78 25 -130 -10z"/>
<path d="M4850 1254 c-46 -20 -77 -50 -103 -99 -18 -33 -22 -57 -22 -140 0
-85 4 -107 24 -148 55 -112 196 -142 276 -60 43 44 45 75 6 102 l-29 21 -30
-30 c-66 -65 -146 -21 -153 85 -5 84 0 106 35 141 43 43 74 44 114 3 l30 -31
31 18 c39 23 40 52 5 94 -48 56 -118 73 -184 44z"/>
<path d="M5750 1254 c-46 -20 -77 -50 -103 -99 -19 -34 -22 -57 -22 -145 0
-94 3 -109 24 -145 33 -53 67 -82 118 -99 56 -19 112 -3 164 49 53 53 73 116
67 219 -7 118 -46 185 -130 221 -46 19 -73 19 -118 -1z m108 -119 c64 -54 59
-219 -8 -255 -111 -59 -191 151 -94 248 39 39 63 40 102 7z"/>
<path d="M6245 1254 c-16 -8 -37 -22 -47 -31 -15 -13 -17 -12 -20 9 -3 20 -8
23 -48 23 l-45 0 -3 -242 -2 -243 49 0 49 0 4 158 c2 95 8 165 15 178 18 32
68 50 99 35 43 -19 54 -65 54 -226 l0 -145 51 0 51 0 -4 178 c-3 155 -7 183
-25 222 -27 56 -41 72 -76 88 -37 16 -66 15 -102 -4z"/>
<path d="M233 1245 c2 -16 12 -21 49 -25 38 -5 45 -3 36 7 -6 7 -25 13 -43 13
-19 0 -36 6 -39 13 -3 6 -5 3 -3 -8z"/>
<path d="M669 1250 c-7 -19 1 -60 11 -60 10 0 24 59 16 67 -3 4 -6 -5 -7 -18
l-1 -24 -7 25 c-5 17 -9 20 -12 10z"/>
<path d="M2190 1251 c0 -8 55 -196 136 -463 4 -14 17 -18 58 -18 l53 0 31 103
c78 255 112 370 112 378 0 5 -20 9 -44 9 l-45 0 -16 -57 c-42 -147 -81 -261
-89 -262 -5 -1 -28 62 -51 141 -55 193 -47 178 -100 178 -25 0 -45 -4 -45 -9z"/>
<path d="M3810 1092 c0 -193 12 -251 60 -297 27 -26 39 -30 90 -30 48 0 63 4
85 25 l26 24 6 -22 c4 -18 12 -22 49 -22 l44 0 -2 243 -3 242 -45 0 -45 0 -5
-155 c-6 -190 -18 -220 -86 -220 -61 0 -68 22 -74 209 l-5 166 -47 3 -48 3 0
-169z"/>
<path d="M5447 1254 c-4 -4 -7 -115 -7 -246 l0 -238 50 0 50 0 -2 243 -3 242
-40 3 c-23 2 -44 0 -48 -4z"/>
<path d="M290 1180 c-8 -5 -26 -11 -40 -14 -14 -3 -39 -18 -57 -33 -34 -31
-93 -119 -93 -141 0 -17 62 -12 66 6 1 7 0 8 -3 2 -6 -13 -43 -13 -43 0 0 35
80 140 107 140 7 0 13 5 13 10 0 6 10 10 23 10 12 1 33 7 47 15 14 8 18 14 10
14 -8 0 -22 -4 -30 -9z"/>
<path d="M354 1158 c-3 -5 -11 -7 -17 -5 -16 5 -56 -32 -84 -80 -21 -36 -29
-42 -48 -37 -12 3 -26 1 -29 -5 -5 -7 -1 -8 9 -4 10 3 21 0 27 -8 7 -12 11
-11 21 5 7 10 21 30 33 44 l21 25 14 -31 c8 -18 20 -33 26 -33 17 -2 24 -4 47
-14 32 -14 51 7 50 58 0 36 3 44 15 39 13 -4 13 -2 -1 15 -25 27 -23 31 15 36
17 2 4 3 -31 4 -34 0 -65 -4 -68 -9z m41 -34 c0 -19 -5 -29 -15 -29 -16 0 -25
28 -16 51 10 25 31 10 31 -22z m-57 -18 c4 -20 -16 -48 -29 -40 -11 6 -12 48
-2 58 11 10 28 1 31 -18z m80 -43 c-2 -22 -9 -29 -30 -31 -24 -3 -28 0 -28 22
0 23 5 27 53 35 5 0 7 -11 5 -26z"/>
<path d="M500 1140 c8 -5 20 -10 25 -10 6 0 3 5 -5 10 -8 5 -19 10 -25 10 -5
0 -3 -5 5 -10z"/>
<path d="M555 1100 c10 -11 20 -20 23 -20 3 0 -3 9 -13 20 -10 11 -20 20 -23
20 -3 0 3 -9 13 -20z"/>
<path d="M486 1043 c18 -33 34 -43 34 -22 0 6 9 9 20 6 12 -3 18 -1 14 5 -3 5
-15 7 -26 4 -14 -3 -28 3 -40 17 -19 22 -19 22 -2 -10z"/>
<path d="M586 1055 c4 -8 11 -15 16 -15 6 0 5 6 -2 15 -7 8 -14 15 -16 15 -2
0 -1 -7 2 -15z"/>
<path d="M610 1012 c0 -23 -33 -32 -43 -12 -3 6 -4 5 -3 -2 1 -7 13 -15 27
-16 13 -2 30 -9 38 -15 12 -10 13 -7 7 18 -10 39 -26 56 -26 27z"/>
<path d="M331 984 c0 -11 3 -14 6 -6 3 7 2 16 -1 19 -3 4 -6 -2 -5 -13z"/>
<path d="M296 975 c-3 -9 -6 -22 -5 -28 0 -7 5 -1 10 12 5 13 8 26 5 28 -2 2
-6 -3 -10 -12z"/>
<path d="M281 908 c0 -13 3 -17 6 -10 7 17 21 15 26 -5 3 -11 5 -7 6 10 1 21
-4 27 -19 27 -14 0 -20 -6 -19 -22z"/>
<path d="M272 860 c0 -14 2 -19 5 -12 2 6 2 18 0 25 -3 6 -5 1 -5 -13z"/>
<path d="M302 830 c0 -14 2 -19 5 -12 2 6 2 18 0 25 -3 6 -5 1 -5 -13z"/>
<path d="M246 744 c-3 -9 -6 -28 -6 -43 0 -23 4 -28 23 -27 21 1 22 -4 28 -79
l5 -80 2 105 c0 75 -2 98 -9 81 -8 -20 -12 -21 -25 -10 -11 9 -14 22 -10 41 6
31 2 37 -8 12z"/>
<path d="M2131 646 c-11 -13 -11 -19 -1 -31 7 -8 16 -15 20 -15 15 0 19 28 6
45 -11 15 -13 15 -25 1z"/>
<path d="M2631 641 c-8 -14 -7 -22 5 -32 20 -16 38 2 29 30 -8 26 -21 27 -34
2z"/>
<path d="M232 630 c0 -14 2 -19 5 -12 2 6 2 18 0 25 -3 6 -5 1 -5 -13z"/>
<path d="M2753 633 c-13 -8 -23 -21 -23 -27 0 -6 -7 -24 -16 -41 -11 -22 -12
-35 -5 -50 6 -11 12 -51 13 -90 3 -57 6 -70 21 -73 15 -3 17 6 17 77 0 71 2
80 20 86 11 3 20 12 20 20 0 7 -9 15 -20 18 -28 7 -25 36 5 47 28 11 31 20 13
38 -15 15 -18 15 -45 -5z"/>
<path d="M1956 623 c-6 -22 -6 -232 1 -255 2 -10 11 -18 19 -18 11 0 14 26 14
145 0 119 -3 145 -14 145 -8 0 -17 -8 -20 -17z"/>
<path d="M1114 615 c-8 -21 4 -35 31 -35 24 0 24 -1 27 -112 3 -97 5 -113 20
-116 15 -3 18 9 20 110 l3 113 33 3 c26 3 32 7 32 28 0 23 -2 24 -80 24 -61 0
-82 -3 -86 -15z"/>
<path d="M2467 623 c-4 -3 -7 -67 -7 -140 l0 -134 68 3 c52 2 67 6 67 18 0 11
-13 16 -46 18 -57 4 -59 8 -59 145 0 89 -5 109 -23 90z"/>
<path d="M1310 455 c0 -87 3 -105 15 -105 12 0 15 13 15 61 0 55 3 64 30 89
39 37 39 54 0 47 -16 -4 -32 -2 -35 3 -18 28 -25 0 -25 -95z"/>
<path d="M1442 550 c-34 -14 -22 -36 18 -32 20 2 36 -2 41 -10 16 -25 9 -38
-19 -38 -32 0 -72 -32 -72 -58 0 -48 48 -75 91 -52 13 7 19 7 19 0 0 -5 7 -10
15 -10 12 0 15 16 15 83 0 51 -5 90 -12 100 -16 21 -66 30 -96 17z m68 -129
c0 -24 -25 -45 -45 -37 -15 5 -21 37 -8 49 3 4 17 7 30 7 16 0 23 -6 23 -19z"/>
<path d="M1586 552 c-3 -5 8 -53 25 -106 26 -85 33 -97 51 -94 16 2 26 21 49
93 16 50 27 96 24 103 -10 27 -25 9 -46 -58 -13 -38 -25 -67 -28 -64 -3 3 -15
33 -26 66 -19 59 -37 80 -49 60z"/>
<path d="M1809 553 c-23 -6 -49 -57 -49 -98 0 -76 55 -128 108 -103 39 19 35
44 -6 40 -35 -4 -62 11 -62 34 0 10 15 14 55 14 l55 0 0 34 c0 57 -47 94 -101
79z m60 -52 c13 -24 5 -31 -36 -31 -34 0 -43 16 -21 38 18 18 46 15 57 -7z"/>
<path d="M2137 553 c-4 -3 -7 -51 -7 -105 0 -80 3 -98 15 -98 12 0 15 18 15
105 0 96 -5 117 -23 98z"/>
<path d="M2244 553 c-12 -2 -27 -16 -33 -30 -17 -38 1 -77 42 -89 19 -5 33
-17 35 -28 3 -16 -1 -18 -37 -14 -28 2 -42 -1 -46 -10 -7 -20 -8 -19 25 -31
50 -17 100 12 100 59 0 29 -27 60 -52 60 -21 0 -42 26 -33 41 4 6 21 9 37 7
20 -3 32 0 35 10 10 25 -20 36 -73 25z"/>
<path d="M2637 554 c-4 -4 -7 -52 -7 -106 0 -89 2 -99 18 -96 15 3 17 16 17
102 0 92 -8 120 -28 100z"/>
<path d="M2874 553 c-29 -5 -54 -54 -54 -103 0 -52 13 -76 50 -95 27 -14 33
-14 61 0 38 20 33 41 -10 37 -34 -4 -61 11 -61 34 0 10 15 14 55 14 l55 0 0
34 c0 55 -42 89 -96 79z m55 -52 c13 -24 5 -31 -36 -31 -34 0 -43 16 -21 38
18 18 46 15 57 -7z"/>
<path d="M220 527 c0 -33 -19 -55 -65 -71 l-40 -15 42 0 c48 -1 110 19 80 26
-14 4 -16 11 -11 44 4 21 4 39 0 39 -3 0 -6 -10 -6 -23z"/>
<path d="M300 499 c0 -5 -7 -9 -15 -9 -8 0 -15 -5 -15 -11 0 -6 7 -8 16 -5 9
3 24 6 35 6 25 0 24 16 -1 23 -11 3 -20 1 -20 -4z"/>
<path d="M360 480 c0 -6 7 -10 15 -10 8 0 15 2 15 4 0 2 -7 6 -15 10 -8 3 -15
1 -15 -4z"/>
</g>
</svg>
